<svg width="300" height="300" xmlns="http://www.w3.org/2000/svg">
 <!-- Created with Method Draw - http://github.com/duopixel/Method-Draw/ -->

 <g>
  <title>background</title>
  <rect fill="#ffffff" id="canvas_background" height="302" width="302" y="-1" x="-1"/>
  <g display="none" overflow="visible" y="0" x="0" height="100%" width="100%" id="canvasGrid">
   <rect fill="url(#gridpattern)" stroke-width="0" y="0" x="0" height="100%" width="100%"/>
  </g>
 </g>
 <g>
  <title>Layer 1</title>
  <text stroke="#000" transform="matrix(21.977572511334316,0,0,10.86285976649817,-3005.4335090627137,-1340.5419248942512) " xml:space="preserve" text-anchor="start" font-family="Helvetica, Arial, sans-serif" font-size="24" id="svg_3" y="145.447904" x="136.83331" stroke-width="0" fill="#000000"/>
  <text stroke="#000" transform="matrix(22.243039757789344,0,0,11.113457324034561,-3174.987316343671,-1407.4108233221161) " xml:space="preserve" text-anchor="start" font-family="Helvetica, Arial, sans-serif" font-size="24" id="svg_4" y="148.447904" x="142.83331" fill-opacity="null" stroke-opacity="null" stroke-width="0" fill="#000000"/>
  <path stroke="#000" id="svg_9" d="m0.246903,149.274164l0,0c0,-82.430556 66.990237,-149.253739 149.626865,-149.253739l0,0c39.683495,0 77.741691,15.724893 105.80215,43.715398c28.06049,27.990515 43.824715,65.953775 43.824715,105.538341l0,0c0,82.430546 -66.990237,149.253739 -149.626865,149.253739l0,0c-82.636618,0 -149.626865,-66.823193 -149.626865,-149.253739zm74.813433,0l0,0c0,41.215268 33.495139,74.626869 74.813433,74.626869c41.318324,0 74.813433,-33.411601 74.813433,-74.626869c0,-41.215268 -33.495129,-74.626869 -74.813433,-74.626869l0,0c-41.318294,0 -74.813433,33.411611 -74.813433,74.626869z" fill-opacity="null" stroke-opacity="null" stroke-width="0" fill="#000000"/>
 </g>
</svg>